<?xml version="1.0" encoding="UTF-8" standalone="no"?>
<!DOCTYPE svg PUBLIC "-//W3C//DTD SVG 1.1//EN" "http://www.w3.org/Graphics/SVG/1.1/DTD/svg11.dtd">
<!-- Created with Vectornator (http://vectornator.io/) -->
<svg width="128" height="100%" stroke-miterlimit="10" style="fill-rule:nonzero;clip-rule:evenodd;stroke-linecap:round;stroke-linejoin:round;" version="1.1" viewBox="83.8459 596.562 827.079 255.063" xml:space="preserve" xmlns="http://www.w3.org/2000/svg" xmlns:vectornator="http://vectornator.io" xmlns:xlink="http://www.w3.org/1999/xlink">
<defs/>
<clipPath id="ArtboardFrame">
<rect height="255.063" width="827.079" x="83.8459" y="596.562"/>
</clipPath>
<g clip-path="url(#ArtboardFrame)" id="Layer" vectornator:layerName="Layer">
<g opacity="1" vectornator:layerName="Group 3">
<path d="M241.979 851.625L202.529 851.625C196.492 851.625 191.598 846.731 191.598 840.694C191.598 834.656 196.492 829.762 202.529 829.762L241.979 829.762C248.016 829.762 252.91 834.656 252.91 840.694C252.91 846.731 248.016 851.625 241.979 851.625Z" fill="#000000" fill-rule="nonzero" opacity="1" stroke="none" vectornator:layerName="path 16"/>
<path d="M432.46 663.797C448.5 647.757 467.814 639.738 490.405 639.738C512.996 639.738 532.282 647.729 548.265 663.712C564.248 679.695 572.239 698.981 572.239 721.572L572.239 787.48C572.239 793.24 570.037 797.984 565.631 801.712C561.226 805.439 556.087 806.851 550.213 805.947C545.582 805.157 541.798 802.898 538.862 799.17C535.925 795.443 534.457 791.207 534.457 786.463L534.457 721.572C534.457 709.373 530.164 698.981 521.58 690.397C512.996 681.813 502.604 677.52 490.405 677.52C478.206 677.52 467.786 681.813 459.145 690.397C450.505 698.981 446.184 709.373 446.184 721.572L446.184 769.48C446.184 775.24 443.981 779.984 439.576 783.712C435.171 787.439 430.032 788.851 424.158 787.947C419.527 787.157 415.743 784.898 412.807 781.17C409.87 777.443 408.401 773.207 408.401 768.463L408.401 721.572C408.401 698.981 416.421 679.723 432.46 663.797Z" fill="#000000" fill-rule="nonzero" opacity="1" stroke="none"/>
<path d="M317.147 787.512C317.147 807.635 300.834 823.948 280.71 823.948C260.587 823.948 244.274 807.635 244.274 787.512C244.274 767.388 260.587 751.075 280.71 751.075C300.834 751.075 317.147 767.388 317.147 787.512Z" fill="#000000" fill-rule="nonzero" opacity="1" stroke="none" vectornator:layerName="circle"/>
<path d="M207.729 787.512C207.729 802.604 195.494 814.839 180.401 814.839C165.309 814.839 153.074 802.604 153.074 787.512C153.074 772.419 165.309 760.184 180.401 760.184C195.494 760.184 207.729 772.419 207.729 787.512Z" fill="#000000" fill-rule="nonzero" opacity="1" stroke="none" vectornator:layerName="circle"/>
<path d="M746.552 788.001C746.552 792.987 744.791 797.269 741.268 800.846C737.745 804.423 733.49 806.212 728.504 806.212L610.167 806.212C605.181 806.212 600.926 804.45 597.403 800.927C593.88 797.405 592.119 793.096 592.119 788.001C592.119 782.906 593.853 778.624 597.322 775.156C600.79 771.687 605.072 769.952 610.167 769.952L728.504 769.952C733.598 769.952 737.88 771.687 741.349 775.156C744.818 778.624 746.552 782.906 746.552 788.001Z" fill="#000000" fill-rule="nonzero" opacity="1" stroke="none"/>
<path d="M727.14 722.894C727.14 727.88 725.378 732.162 721.855 735.739C718.332 739.316 714.078 741.105 709.091 741.105L610.167 741.105C605.181 741.105 600.926 739.343 597.403 735.82C593.88 732.297 592.119 727.988 592.119 722.894C592.119 717.799 593.853 713.517 597.322 710.048C600.79 706.579 605.072 704.845 610.167 704.845L709.091 704.845C714.186 704.845 718.468 706.579 721.937 710.048C725.405 713.517 727.14 717.799 727.14 722.894Z" fill="#000000" fill-rule="nonzero" opacity="1" stroke="none"/>
<path d="M830.113 642.176C785.493 642.176 749.331 678.338 749.331 722.958C749.331 767.578 785.493 803.77 830.113 803.77C874.732 803.77 910.925 767.577 910.925 722.958C910.925 678.338 874.733 642.176 830.113 642.176ZM830.113 679.833C853.942 679.833 873.269 699.16 873.269 722.989C873.269 746.818 853.942 766.114 830.113 766.114C806.283 766.114 786.988 746.818 786.988 722.989C786.988 699.16 806.283 679.833 830.113 679.833Z" fill="#000000" fill-rule="nonzero" opacity="1" stroke="none" vectornator:layerName="Curve 5"/>
<path d="M746.552 657.786C746.552 662.772 744.791 667.054 741.268 670.631C737.745 674.209 733.49 675.997 728.504 675.997L610.167 675.997C605.181 675.997 600.926 674.236 597.403 670.713C593.88 667.19 592.119 662.881 592.119 657.786C592.119 652.691 593.853 648.41 597.322 644.941C600.79 641.472 605.072 639.738 610.167 639.738L728.504 639.738C733.598 639.738 737.88 641.472 741.349 644.941C744.818 648.41 746.552 652.691 746.552 657.786Z" fill="#000000" fill-rule="nonzero" opacity="1" stroke="none" vectornator:layerName="Curve 6"/>
<path d="M219.281 596.562C150.061 600.685 94.6465 655.242 89.7188 724.094L89.7188 773.469C83.7975 784.337 82.2815 797.027 85.5 808.969C89.9517 826.716 101.985 841.634 118.438 849.781C120.892 850.965 123.586 851.609 126.312 851.625C134.824 851.575 142.184 845.67 144.062 837.406C145.941 829.143 141.848 820.693 134.188 817C127.615 813.648 122.855 807.568 121.188 800.406C120.022 796.869 120.491 793.003 122.469 789.844C124.948 786.664 126.3 782.775 126.312 778.75L126.312 724.094C131.106 679.451 164.331 642.996 208.5 633.906L219.281 658.5C221.302 663.096 225.161 666.654 229.906 668.344C234.652 670.033 239.884 669.715 244.375 667.438C266.03 662.266 288.875 666.702 306.969 679.625C330.083 692.288 344.852 716.072 345.938 742.312L345.969 753.812L345.969 764.594L346 764.594L346 769.5C346 792.091 353.08 811.673 369.062 827.656C385.045 843.639 404.347 851.625 426.938 851.625C449.528 851.625 468.836 843.602 484.875 827.562C500.914 811.636 508.938 792.372 508.938 769.781L508.938 762.906C508.938 758.162 507.468 753.915 504.531 750.188C501.595 746.46 497.819 744.197 493.188 743.406C487.314 742.503 482.155 743.929 477.75 747.656C473.345 751.384 471.156 756.114 471.156 761.875L471.156 769.781C471.156 781.98 466.828 792.384 458.188 800.969C449.547 809.553 439.136 813.844 426.938 813.844C414.739 813.844 404.334 809.553 395.75 800.969C387.166 792.384 382.875 781.98 382.875 769.781L382.531 755.625C382.531 755.604 382.501 755.584 382.5 755.562L382.531 742.312C381.865 703.325 360.412 667.628 326.188 648.656C302.549 633.407 274.42 626.533 246.375 629.156L236.125 607.5C233.205 600.84 226.582 596.537 219.281 596.562Z" fill="#000000" fill-rule="nonzero" opacity="1" stroke="none" vectornator:layerName="Curve 8"/>
</g>
</g>
</svg>
